<svg width="880" height="301" viewBox="0 0 880 301" fill="none" xmlns="http://www.w3.org/2000/svg">
<path d="M466.5 257.925L5.5 295.039V5.96059L466.5 43.075V257.925Z" stroke="#3b368c" stroke-width="11"/>
<rect x="460" y="80" width="70" height="141" fill="#f0f5fc"/>
<path d="M149.715 207H72.203C66.6223 207 61.8734 205.007 57.9563 201.02C53.9854 197.087 52 192.319 52 186.715V112.285C52 106.681 53.9854 101.886 57.9563 97.8995C61.8734 93.9665 66.6223 92 72.203 92H149.715C155.295 92 160.071 93.9665 164.042 97.8995C167.959 101.886 169.918 106.681 169.918 112.285V129.175H142.954V119.073H78.9641V179.927H142.954V163.037H105.928V135.963H169.918V186.715C169.918 192.319 167.959 197.087 164.042 201.02C160.071 205.007 155.295 207 149.715 207Z" fill="#3b368c"/>
<path d="M276.889 179.927V119.073H216.28V179.927H276.889ZM303.853 112.285V186.715C303.853 192.319 301.894 197.087 297.977 201.02C294.006 205.007 289.231 207 283.65 207H189.316V92H283.65C289.231 92 294.006 93.9665 297.977 97.8995C301.894 101.886 303.853 106.681 303.853 112.285Z" fill="#3b368c"/>
<path d="M443.584 92H471.514V207H444.549V134.59L397.382 195.12L350.215 134.59V207H323.251V92H351.181L397.382 151.238L443.584 92Z" fill="#3b368c"/>
<path d="M490.831 92H605.368V119.073H517.795V135.963H605.368V163.037H517.795V179.927H605.368V207H490.831V92Z" fill="#3b368c"/>
<path d="M719.101 92H746.065V207H715.64L651.731 131.923V207H624.766V92H655.192L719.101 166.996V92Z" fill="#3b368c"/>
<path d="M859.797 207H785.666C780.085 207 775.336 205.007 771.419 201.02C767.448 197.087 765.463 192.319 765.463 186.715V92H792.427V179.927H853.036V92H880V186.715C880 192.319 878.041 197.087 874.124 201.02C870.153 205.007 865.378 207 859.797 207Z" fill="#3b368c"/>
</svg>
