<?xml version="1.0" encoding="utf-8"?>
<!-- Generator: Adobe Illustrator 28.0.0, SVG Export Plug-In . SVG Version: 6.00 Build 0)  -->
<svg version="1.1" id="katman_1" xmlns="http://www.w3.org/2000/svg" xmlns:xlink="http://www.w3.org/1999/xlink" x="0px" y="0px"
	 viewBox="0 0 120 42" style="enable-background:new 0 0 120 42;" xml:space="preserve">
<style type="text/css">
	.st0{fill:#3554D1;}
	.st1{font-family:'OpenSans-Extrabold';}
	.st2{font-size:22.5856px;}
	.st3{fill:#FFFFFF;}
</style>
<path class="st0" d="M18,0h6c9.9,0,18,8.1,18,18v6c0,9.9-8.1,18-18,18h-6C8.1,42,0,33.9,0,24v-6C0,8.1,8.1,0,18,0z"/>
<text transform="matrix(1 0 0 1 54.458 28.5698)" class="st1 st2">Moro</text>
<g>
	<path class="st3" d="M20.8,12.4c-4.8,0-8.8,3.9-8.8,8.8C12,26,16,30,20.8,30c4.8,0,8.8-3.9,8.8-8.8C29.6,16.4,25.6,12.4,20.8,12.4z
		 M20.8,27.4c-3.4,0-6.2-2.8-6.2-6.2c0-3.4,2.8-6.2,6.2-6.2c3.4,0,6.2,2.8,6.2,6.2C27,24.6,24.2,27.4,20.8,27.4z"/>
	<g>
		<path class="st3" d="M18.2,19.7c0.3-0.4,0.6-0.8,1-1l-5.6-5.6c-0.3-0.3-0.7-0.3-1,0c-0.3,0.3-0.3,0.7,0,1L18.2,19.7z"/>
		<path class="st3" d="M23.4,19.7l5.6-5.6c0.3-0.3,0.3-0.7,0-1c-0.3-0.3-0.7-0.3-1,0l-5.6,5.6C22.8,18.9,23.1,19.2,23.4,19.7z"/>
		<path class="st3" d="M17.8,21.2c0-0.3,0-0.5,0.1-0.7H10c-0.4,0-0.7,0.3-0.7,0.7s0.3,0.7,0.7,0.7h7.9
			C17.8,21.7,17.8,21.5,17.8,21.2z"/>
		<path class="st3" d="M20.8,18.2c0.3,0,0.5,0,0.7,0.1v-7.9c0-0.4-0.3-0.7-0.7-0.7c-0.4,0-0.7,0.3-0.7,0.7v7.9
			C20.3,18.2,20.6,18.2,20.8,18.2z"/>
		<path class="st3" d="M31.6,20.5h-7.9c0.1,0.2,0.1,0.5,0.1,0.7c0,0.3,0,0.5-0.1,0.7h7.9c0.4,0,0.7-0.3,0.7-0.7S32,20.5,31.6,20.5z"
			/>
		<path class="st3" d="M23.4,22.8c-0.3,0.4-0.6,0.8-1,1l5.6,5.6c0.3,0.3,0.7,0.3,1,0c0.3-0.3,0.3-0.7,0-1L23.4,22.8z"/>
		<path class="st3" d="M20.8,24.2c-0.3,0-0.5,0-0.7-0.1V32c0,0.4,0.3,0.7,0.7,0.7c0.4,0,0.7-0.3,0.7-0.7v-7.9
			C21.3,24.2,21.1,24.2,20.8,24.2z"/>
		<path class="st3" d="M18.2,22.8l-5.6,5.6c-0.3,0.3-0.3,0.7,0,1c0.3,0.3,0.7,0.3,1,0l5.6-5.6C18.8,23.5,18.5,23.2,18.2,22.8z"/>
	</g>
	<path class="st3" d="M20.8,18.2c-1.7,0-3,1.3-3,3c0,1.7,1.3,3,3,3c1.7,0,3-1.3,3-3C23.8,19.5,22.5,18.2,20.8,18.2z M20.8,22.6
		c-0.7,0-1.4-0.6-1.4-1.4c0-0.7,0.6-1.4,1.4-1.4c0.7,0,1.4,0.6,1.4,1.4C22.2,22,21.5,22.6,20.8,22.6z"/>
</g>
</svg>
